<?xml version="1.0"?>
<svg xmlns="http://www.w3.org/2000/svg" id="Capa_1" enable-background="new 0 0 512 512" height="512px" viewBox="0 0 512 512" width="512px" class=""><g><g><path d="m377 452c-24.813 0-45-20.187-45-45v-30h-106v90h151z" fill="#2d3e53" data-original="#2D3E53"/><path d="m180 377v30c0 24.813-20.187 45-45 45v15h121v-90z" fill="#435d7a" data-original="#435D7A" class=""/><path d="m437 452h-181l-20 15 20 15h181z" fill="#16202d" data-original="#16202D" class=""/><path d="m512 332-135-60 60 135h75z" fill="#622876" data-original="#622876" class="active-path" style="fill:#336A93" data-old_color="#622876"/><path d="m196 272 60 135h181v-75z" fill="#16202d" data-original="#16202D" class=""/><path d="m0 332v75h256v-135z" fill="#2d3e53" data-original="#2D3E53"/><path d="m512 332v-302h-256l-60 151 60 151z" fill="#ffe17c" data-original="#FFE17C" class="" style="fill:#03C9E7" data-old_color="#ffe17c"/><path d="m0 30h256v302h-256z" fill="#fff0be" data-original="#FFF0BE" class="" style="fill:#C7EBFF" data-old_color="#fff0be"/><path d="m75 452h181v30h-181z" fill="#2d3e53" data-original="#2D3E53"/></g></g> </svg>
