<?xml version="1.0"?>
<svg xmlns="http://www.w3.org/2000/svg" xmlns:xlink="http://www.w3.org/1999/xlink" xmlns:svgjs="http://svgjs.com/svgjs" version="1.1" width="512" height="512" x="0" y="0" viewBox="0 0 496 496" style="enable-background:new 0 0 512 512" xml:space="preserve" class=""><g><path xmlns="http://www.w3.org/2000/svg" d="m171.878906 171.984375c-7.527344 8.601563-13.824218 18.046875-19.070312 28.015625h-21.503906l-13.65625-13.65625-11.3125 11.3125 18.351562 18.34375h20.777344c-2.953125 7.777344-5.199219 15.808594-6.785156 24h-15.375l-13.65625-13.65625-11.3125 11.3125 18.351562 18.34375h19.832031c-.304687 3.808594-.519531 7.640625-.519531 11.488281 0 6.902344.558594 13.75 1.542969 20.511719h-20.855469l-18.34375 18.34375 11.3125 11.3125 13.65625-13.65625h17.472656c2.167969 8.246094 5.046875 16.28125 8.597656 24h-24.695312l-18.34375 18.34375 11.3125 11.3125 13.65625-13.65625h26.671875c9.390625 15.136719 21.519531 28.625 36.023437 39.503906l34.792969 26.105469c5.511719 4.117187 12.328125 6.390625 19.199219 6.390625s13.6875-2.273438 19.199219-6.398438l34.792969-26.097656c14.511718-10.886718 26.640624-24.375 36.023437-39.503906h26.671875l13.65625 13.65625 11.3125-11.3125-18.34375-18.34375h-24.695312c3.550781-7.71875 6.4375-15.753906 8.597656-24h17.472656l13.65625 13.65625 11.3125-11.3125-18.34375-18.34375h-20.855469c.984375-6.761719 1.542969-13.609375 1.542969-20.511719 0-3.847656-.214844-7.671875-.519531-11.488281h19.832031l18.34375-18.34375-11.3125-11.3125-13.65625 13.65625h-15.375c-1.585938-8.191406-3.824219-16.222656-6.785156-24h20.777344l18.34375-18.34375-11.3125-11.3125-13.648438 13.65625h-21.503906c-5.246094-9.96875-11.542969-19.414062-19.070313-28.015625l-20.28125-23.175781c-.144531-2.496094-.40625-4.953125-.863281-7.351563l15.566406-7.785156 7.234375-21.671875h10.230469v-16h-32v16h4.894531l-3.4375 10.328125-7.792969 3.894531c-9.34375-17.925781-28.078124-30.222656-49.664062-30.222656s-40.320312 12.296875-49.664062 30.222656l-7.792969-3.894531-3.4375-10.328125h4.894531v-16h-32v16h10.230469l7.226562 21.671875 15.566407 7.785156c-.457032 2.398438-.726563 4.855469-.863282 7.351563zm120.488282-11.984375 14.007812 16h-116.75l14.007812-16zm-52.367188 190.527344c-9.289062-3.3125-16-12.113282-16-22.527344s6.710938-19.214844 16-22.527344zm16-45.054688c9.289062 3.3125 16 12.113282 16 22.527344s-6.710938 19.214844-16 22.527344zm-16-98.945312c-6.777344-2.414063-12.113281-7.75-14.527344-14.527344h14.527344zm16-14.527344h14.527344c-2.414063 6.777344-7.75 12.113281-14.527344 14.527344zm-104 75.488281c0-5.929687.535156-11.785156 1.335938-17.59375 8.609374 3.640625 14.664062 12.175781 14.664062 22.105469 0 9.320312-5.398438 17.335938-13.183594 21.304688-1.746094-8.449219-2.816406-17.074219-2.816406-25.816407zm51.617188 103.222657c-20.90625-15.679688-36.25-37.40625-44.5625-61.703126 14.609374-5.96875 24.945312-20.289062 24.945312-37.007812 0-17.695312-11.625-32.566406-27.585938-37.824219 4.035157-15.097656 10.769532-29.398437 19.984376-42.175781h32.410156c3.191406 15.648438 15.542968 28 31.191406 31.191406v65.617188c-18.230469 3.71875-32 19.871094-32 39.191406s13.769531 35.472656 32 39.191406v30.433594c-.519531-.296875-1.113281-.457031-1.601562-.816406zm140.382812-103.222657c0 8.742188-1.070312 17.367188-2.816406 25.824219-7.785156-3.976562-13.183594-11.992188-13.183594-21.3125 0-9.929688 6.054688-18.464844 14.664062-22.113281.800782 5.808593 1.335938 11.671875 1.335938 17.601562zm-4.414062-33.3125c-15.960938 5.257813-27.585938 20.128907-27.585938 37.824219 0 16.71875 10.335938 31.039062 24.945312 37.007812-8.3125 24.296876-23.648437 46.023438-44.5625 61.703126l-34.78125 26.089843c-.488281.367188-1.082031.519531-1.601562.816407v-30.425782c18.230469-3.71875 32-19.871094 32-39.191406s-13.769531-35.472656-32-39.191406v-65.617188c15.648438-3.191406 28-15.542968 31.191406-31.191406h32.410156c9.214844 12.777344 15.941407 27.070312 19.984376 42.175781zm-91.585938-122.175781c19.3125 0 35.472656 13.769531 39.191406 32h-15.191406v-8h-16v8h-16v-8h-16v8h-15.191406c3.71875-18.230469 19.878906-32 39.191406-32zm0 0" fill="#17a2b8" data-original="#000000" style=""/><path xmlns="http://www.w3.org/2000/svg" d="m280 240h16v16h-16zm0 0" fill="#17a2b8" data-original="#000000" style=""/><path xmlns="http://www.w3.org/2000/svg" d="m200 272h16v16h-16zm0 0" fill="#17a2b8" data-original="#000000" style=""/><path xmlns="http://www.w3.org/2000/svg" d="m184 208h16v16h-16zm0 0" fill="#17a2b8" data-original="#000000" style=""/><path xmlns="http://www.w3.org/2000/svg" d="m296 304h16v16h-16zm0 0" fill="#17a2b8" data-original="#000000" style=""/><path xmlns="http://www.w3.org/2000/svg" d="m0 240h32v16h-32zm0 0" fill="#17a2b8" data-original="#000000" style=""/><path xmlns="http://www.w3.org/2000/svg" d="m240 464h16v32h-16zm0 0" fill="#17a2b8" data-original="#000000" style=""/><path xmlns="http://www.w3.org/2000/svg" d="m464 240h32v16h-32zm0 0" fill="#17a2b8" data-original="#000000" style=""/><path xmlns="http://www.w3.org/2000/svg" d="m240 0h16v32h-16zm0 0" fill="#17a2b8" data-original="#000000" style=""/><path xmlns="http://www.w3.org/2000/svg" d="m16 40c0-13.230469 10.769531-24 24-24h48v-16h-48c-22.054688 0-40 17.945312-40 40v48h16zm0 0" fill="#17a2b8" data-original="#000000" style=""/><path xmlns="http://www.w3.org/2000/svg" d="m16 456v-48h-16v48c0 22.054688 17.945312 40 40 40h48v-16h-48c-13.230469 0-24-10.769531-24-24zm0 0" fill="#17a2b8" data-original="#000000" style=""/><path xmlns="http://www.w3.org/2000/svg" d="m480 456c0 13.230469-10.769531 24-24 24h-48v16h48c22.054688 0 40-17.945312 40-40v-48h-16zm0 0" fill="#17a2b8" data-original="#000000" style=""/><path xmlns="http://www.w3.org/2000/svg" d="m456 0h-48v16h48c13.230469 0 24 10.769531 24 24v48h16v-48c0-22.054688-17.945312-40-40-40zm0 0" fill="#17a2b8" data-original="#000000" style=""/><path xmlns="http://www.w3.org/2000/svg" d="m248 432c-101.457031 0-184-82.535156-184-184 0-46.265625 17.265625-90.496094 48.601562-124.558594l-11.777343-10.832031c-34.0625 37.015625-52.824219 85.101563-52.824219 135.390625 0 110.28125 89.71875 200 200 200 50.296875 0 98.375-18.761719 135.390625-52.832031l-10.832031-11.769531c-34.0625 31.34375-78.292969 48.601562-124.558594 48.601562zm0 0" fill="#17a2b8" data-original="#000000" style=""/><path xmlns="http://www.w3.org/2000/svg" d="m248 48c-50.296875 0-98.375 18.761719-135.390625 52.832031l10.832031 11.769531c34.0625-31.34375 78.292969-48.601562 124.558594-48.601562 101.457031 0 184 82.535156 184 184 0 46.265625-17.265625 90.496094-48.601562 124.558594l11.777343 10.832031c34.0625-37.015625 52.824219-85.101563 52.824219-135.390625 0-110.28125-89.71875-200-200-200zm0 0" fill="#17a2b8" data-original="#000000" style=""/><path xmlns="http://www.w3.org/2000/svg" d="m448 32h16v16h-16zm0 0" fill="#17a2b8" data-original="#000000" style=""/><path xmlns="http://www.w3.org/2000/svg" d="m32 32h16v16h-16zm0 0" fill="#17a2b8" data-original="#000000" style=""/><path xmlns="http://www.w3.org/2000/svg" d="m32 448h16v16h-16zm0 0" fill="#17a2b8" data-original="#000000" style=""/><path xmlns="http://www.w3.org/2000/svg" d="m448 448h16v16h-16zm0 0" fill="#17a2b8" data-original="#000000" style=""/></g></svg>
