<?xml version="1.0"?>
<svg xmlns="http://www.w3.org/2000/svg" height="512px" viewBox="-3 0 409 409.60171" width="512px" class=""><g><path d="m344.925781 240.339844c-10.332031-27.34375-28.082031-51.660156-51.613281-69.992188l13.902344-7.695312c4.59375.789062 9.273437 1.1875 13.9375 1.1875 45.171875 0 81.921875-36.746094 81.921875-81.917969 0-45.175781-36.75-81.921875-81.921875-81.921875-45.167969 0-81.917969 36.746094-81.917969 81.921875 0 23.199219 9.695313 44.992187 26.757813 60.523437l-3.265626 9.183594c-20.269531-9.5-41.910156-14.535156-64.453124-15v-41.054687c0-3.773438-3.054688-6.824219-6.824219-6.824219-3.773438 0-6.828125 3.050781-6.828125 6.824219v41.324219c-63.976563 4.050781-117.863282 45.75-139.722656 103.152343-24.6875.59375-44.597657 20.824219-44.597657 45.648438 0 20.96875 13.992188 38.871093 34.132813 44.128906v29.433594c0 27.761719 22.582031 50.339843 50.339844 50.339843h220.175781c27.753906 0 50.339843-22.578124 50.339843-50.339843v-30.726563c17.929688-6.484375 30.097657-23.3125 30.097657-42.832031 0-23.082031-17.675781-42.742187-40.460938-45.363281zm-92.039062-158.417969c0-37.640625 30.625-68.265625 68.265625-68.265625 37.644531 0 68.269531 30.625 68.269531 68.265625s-30.625 68.265625-68.269531 68.265625c-4.609375 0-9.226563-.464844-13.730469-1.378906-1.609375-.332032-3.246094-.066406-4.671875.710937l-30.859375 17.082031 8.539063-23.996093c.96875-2.726563.109374-5.773438-2.140626-7.589844-16.144531-13.054687-25.402343-32.40625-25.402343-53.09375zm-238.933594 203.777344c0-15.703125 11.375-28.746094 26.304687-31.46875-3.765624 13.613281-5.824218 27.933593-5.824218 42.730469v18.578124c-12.238282-4.703124-20.480469-16.363281-20.480469-29.839843zm327.679687 73.5625c0 20.226562-16.457031 36.6875-36.683593 36.6875h-220.175781c-20.230469 0-36.6875-16.460938-36.6875-36.6875v-62.300781c0-80.933594 65.84375-146.773438 146.773437-146.773438 22.203125 0 43.464844 4.863281 63.273437 14.355469l-5.152343 14.476562c-.949219 2.675781-.144531 5.652344 2.019531 7.496094 1.261719 1.066406 2.832031 1.617187 4.414062 1.617187 1.132813 0 2.269532-.277343 3.308594-.851562l17.507813-9.691406c38.460937 27.558594 61.402343 72.085937 61.402343 119.371094zm13.65625-45.644531v-16.65625c0-14.207032-1.957031-28.164063-5.574218-41.597657 12.769531 4.277344 22.019531 16.382813 22.019531 30.335938 0 11.921875-6.488281 22.390625-16.445313 27.917969zm0 0" data-original="#000000" class="active-path" data-old_color="#000000" fill="#03C9E7"/><path d="m109.890625 249.949219c-20.222656 0-36.675781 16.453125-36.675781 36.679687 0 3.773438 3.054687 6.824219 6.828125 6.824219 3.769531 0 6.824219-3.050781 6.824219-6.824219 0-12.699218 10.328124-23.027344 23.023437-23.027344s23.027344 10.328126 23.027344 23.027344c0 3.773438 3.054687 6.824219 6.824219 6.824219 3.773437 0 6.828124-3.050781 6.828124-6.824219 0-20.226562-16.453124-36.679687-36.679687-36.679687zm0 0" data-original="#000000" class="active-path" data-old_color="#000000" fill="#03C9E7"/><path d="m272.800781 249.949219c-20.222656 0-36.675781 16.453125-36.675781 36.679687 0 3.773438 3.054688 6.824219 6.828125 6.824219 3.769531 0 6.824219-3.050781 6.824219-6.824219 0-12.699218 10.328125-23.027344 23.023437-23.027344 12.695313 0 23.027344 10.328126 23.027344 23.027344 0 3.773438 3.054687 6.824219 6.824219 6.824219 3.773437 0 6.828125-3.050781 6.828125-6.824219 0-20.226562-16.453125-36.679687-36.679688-36.679687zm0 0" data-original="#000000" class="active-path" data-old_color="#000000" fill="#03C9E7"/><path d="m226.175781 337.535156c-20.800781 10.703125-41.585937 10.699219-63.527343-.0625-3.386719-1.675781-7.472657-.25-9.136719 3.121094-1.660157 3.386719-.257813 7.480469 3.128906 9.132812 12.839844 6.300782 25.625 9.449219 38.261719 9.449219 12.683594 0 25.21875-3.167969 37.523437-9.507812 3.351563-1.71875 4.671875-5.839844 2.945313-9.191407-1.730469-3.355468-5.84375-4.695312-9.195313-2.941406zm0 0" data-original="#000000" class="active-path" data-old_color="#000000" fill="#03C9E7"/><path d="m315.589844 121.65625c1.296875 1.570312 3.226562 2.476562 5.265625 2.476562 2.035156 0 3.964843-.90625 5.261719-2.476562l27.859374-33.722656c5.550782-6.714844 6.921876-15.941406 3.582032-24.078125-3.226563-7.855469-10.101563-13.046875-18.363282-13.878907-6.488281-.707031-13.222656 1.25-18.339843 5.21875-5.117188-3.960937-11.996094-5.867187-18.3125-5.226562-8.289063.839844-15.164063 6.035156-18.390625 13.894531-3.339844 8.132813-1.964844 17.359375 3.582031 24.074219zm-18.808594-52.613281c.613281-1.496094 2.539062-5.019531 7.164062-5.496094.398438-.039063.800782-.058594 1.207032-.058594 4.03125 0 7.777344 2.011719 10.015625 5.378907 1.261719 1.90625 3.398437 3.054687 5.6875 3.054687 2.285156 0 4.417969-1.148437 5.683593-3.046875 2.46875-3.722656 6.640626-5.839844 11.25-5.320312 4.601563.464843 6.523438 3.992187 7.140626 5.488281 1.113281 2.710937 1.3125 6.820312-1.476563 10.199219l-22.597656 27.347656-22.59375-27.347656c-2.792969-3.378907-2.59375-7.480469-1.480469-10.199219zm0 0" data-original="#000000" class="active-path" data-old_color="#000000" fill="#03C9E7"/></g> </svg>
